<?xml version="1.0" encoding="UTF-8"?>
<svg width="68px" height="74px" viewBox="0 0 68 74" version="1.1" xmlns="http://www.w3.org/2000/svg" xmlns:xlink="http://www.w3.org/1999/xlink">
    <title>编组 3备份 5</title>
    <defs>
        <path d="M24,0 C37.254834,0 48,10.7112268 48,23.9241947 C48,34.9859037 40.4689275,44.2941923 30.2390995,47.0320067 L25.5344481,52.6584774 C25.4581987,52.7496877 25.3739686,52.8339177 25.2827584,52.9101671 C24.4353061,53.618615 23.1739998,53.5059297 22.4655519,52.6584774 L22.4655519,52.6584774 L17.7609005,47.0320067 C7.5310725,44.2941923 0,34.9859037 0,23.9241947 C0,10.7112268 10.745166,0 24,0 Z" id="path-1"></path>
        <filter x="-33.3%" y="-26.2%" width="166.7%" height="160.0%" filterUnits="objectBoundingBox" id="filter-2">
            <feOffset dx="0" dy="2" in="SourceAlpha" result="shadowOffsetOuter1"></feOffset>
            <feGaussianBlur stdDeviation="5" in="shadowOffsetOuter1" result="shadowBlurOuter1"></feGaussianBlur>
            <feColorMatrix values="0 0 0 0 0   0 0 0 0 0   0 0 0 0 0  0 0 0 0.2 0" type="matrix" in="shadowBlurOuter1"></feColorMatrix>
        </filter>
    </defs>
    <g id="工作台" stroke="none" stroke-width="1" fill="none" fill-rule="evenodd">
        <g id="编组-3备份-5" transform="translate(10.000000, 8.000000)">
            <g id="形状结合">
                <use fill="black" fill-opacity="1" filter="url(#filter-2)" xlink:href="#path-1"></use>
                <use fill="#FFFFFF" fill-rule="evenodd" xlink:href="#path-1"></use>
            </g>
            <circle id="椭圆形" fill="#E9F0FF" cx="24" cy="24" r="20"></circle>
            <g id="环卫工人-男-2" transform="translate(11.000000, 9.000000)" fill-rule="nonzero">
                <g id="环卫工人-男">
                    <polygon id="路径" fill="#FFC1A0" points="9.94479993 9.26282531 15.0516841 9.26282531 15.0516841 15.3434247 9.94479993 15.3434247"></polygon>
                    <path d="M16.1509314,9.48104482 C16.3352256,9.53623543 16.5563772,9.42647121 16.7310679,9.19310549 C16.9057587,8.95973978 17.0074441,8.63823276 16.9978145,8.34971128 C16.988185,8.06118979 16.8687036,7.84949501 16.6843848,7.79438233 C16.5000906,7.73919171 16.278939,7.84895594 16.1042483,8.08232166 C15.9295575,8.31568737 15.8278721,8.63719439 15.8375017,8.92571587 C15.8471312,9.21423736 15.9666126,9.42593214 16.1509314,9.48104482 Z" id="路径" fill="#FFC1A0"></path>
                    <path d="M8.10903785,8.79160399 C8.25634693,9.25736299 8.60671242,9.56582669 8.89160108,9.48057697 C9.17648973,9.39532724 9.28802,8.94864642 9.14071092,8.48288743 C8.99340183,8.01712844 8.64303634,7.70866474 8.35814769,7.79391446 C8.07325904,7.87916418 7.96172876,8.325845 8.10903785,8.79160399 L8.10903785,8.79160399 Z" id="路径" fill="#FFC1A0"></path>
                    <path d="M8.83025102,8.30354065 C8.83025102,10.8552607 10.4830919,12.9238386 12.5219745,12.9238386 C14.5608571,12.9238386 16.2136981,10.8552607 16.2136981,8.30354065 C16.2136981,6.65286717 15.5100595,5.12758198 14.3678363,4.30224525 C13.2256131,3.47690851 11.818336,3.47690851 10.6761128,4.30224525 C9.53388955,5.12758198 8.83025102,6.65286717 8.83025102,8.30354065 L8.83025102,8.30354065 Z" id="路径" fill="#FDD0B4"></path>
                    <path d="M15.2204486,3.0847585 C15.1729836,2.97874131 15.1747416,2.82997522 15.1378244,2.71711822 C15.0449366,2.43291291 14.8909259,2.17119182 14.6860277,1.94934851 C14.0672245,1.28417608 13.1495676,1.11660052 12.2635539,1.1884186 C11.2454601,1.28302108 10.2529807,1.55404433 9.33302863,1.98867747 C8.82321918,2.22465124 8.38900218,2.5324431 8.13761339,3.04029968 C7.69812251,3.90724677 7.7508614,4.8870509 7.92665777,5.81042651 C8.07880564,6.70036641 8.31417794,7.57493419 8.6298432,8.42323748 L8.85837846,8.98239272 C8.91463331,7.84527275 8.91287535,7.63152841 9.0341748,7.03988402 C9.06406017,6.89453787 9.10097741,6.72696228 9.14844245,6.51492789 C9.24319895,6.10492998 9.65615141,5.84270439 10.0801631,5.92328351 C10.8800366,6.07717945 11.7256171,5.80016676 12.4393503,5.41029707 C12.7356714,5.24462821 13.0669703,5.14695857 13.4079882,5.12473462 C13.6435553,5.10934502 13.9160397,5.07172601 14.1217214,5.04778665 C14.238392,5.03249832 14.3566435,5.03249832 14.4733141,5.04778665 C14.4733141,5.04778665 15.5808312,3.89869701 15.2204486,3.0847585 L15.2204486,3.0847585 Z" id="路径" fill="#2B2C2D"></path>
                    <path d="M16.4949722,8.14793475 C16.5318895,8.06414697 16.5670487,7.97693925 16.6004501,7.89486142 C16.7321708,7.57437425 16.8362497,7.24378265 16.9116096,6.90650753 C16.9995078,6.49782834 17.0768582,6.08743916 17.1225652,5.67363011 C17.1682723,5.25982106 17.2508966,4.83233233 17.1647564,4.40655359 C17.0540047,3.861078 16.6830743,3.51395718 16.1715069,3.30363272 C15.8653997,3.15850294 15.5293396,3.08304854 15.1888053,3.08304854 C15.5966528,3.7020522 14.4856199,5.04094681 14.4856199,5.04265679 C14.6040735,5.04276497 14.7220957,5.05654087 14.8372126,5.08369571 C14.9422583,5.11324956 15.0410685,5.16072647 15.1290345,5.22391201 C15.5157865,5.49750479 15.7548695,6.03785052 15.879685,6.45165957 C16.0037934,6.82228541 16.0972628,7.20196319 16.1592012,7.58706956 C16.1870438,7.81400076 16.1982059,8.042575 16.1926025,8.27105149 C16.1926025,8.45743656 16.1926025,8.79600762 16.1820547,8.96529317 C16.2558892,8.73615923 16.3982842,8.37193883 16.4949722,8.14793475 L16.4949722,8.14793475 Z" id="路径" fill="#2B2C2D"></path>
                    <path d="M8.19914212,8.26250173 C8.29466188,8.30745847 8.38102326,8.36886749 8.45404683,8.44375694 C8.52951082,8.51665747 8.59401966,8.59955278 8.64566488,8.68999043 C8.75173673,8.86947118 8.80239444,9.07487964 8.79157585,9.28163482 C8.75641657,9.18587734 8.73004713,9.09011986 8.68961396,9.00120222 C8.65135494,8.91083539 8.60731979,8.82288583 8.55776668,8.73786915 C8.45701016,8.56678293 8.33670582,8.40731597 8.19914212,8.26250173 Z" id="路径" fill="#FA9E6C"></path>
                    <path d="M8.25715492,8.95101497 C8.29363679,8.91641875 8.33516221,8.89459428 8.37845441,8.88726375 C8.42137006,8.87448462 8.46562806,8.87448462 8.50854371,8.88726375 C8.55457253,8.90192203 8.59669747,8.93557415 8.6298432,8.9841656 C8.66423404,9.0317259 8.68227013,9.0990012 8.67906617,9.16776912 C8.65164554,9.12885043 8.61944864,9.09771452 8.58413615,9.07596736 C8.55222557,9.05685015 8.51930337,9.04150002 8.48569019,9.03006646 L8.37669645,8.99436578 C8.33802125,8.9841656 8.29934605,8.97396537 8.25715492,8.95101497 L8.25715492,8.95101497 Z M16.8114057,8.26250173 C16.6757531,8.47834702 16.5577711,8.71623305 16.459813,8.97141533 C16.4102598,9.09820037 16.3662247,9.2293592 16.3279657,9.36412292 C16.2875325,9.49672545 16.2611631,9.6395282 16.2242458,9.78233096 C16.2140595,9.47376081 16.2653236,9.16745956 16.3719148,8.90001397 C16.42356,8.76514465 16.4880688,8.64152321 16.5635328,8.53280693 C16.6344605,8.4221082 16.7183907,8.33058238 16.8114057,8.26250173 L16.8114057,8.26250173 Z" id="形状" fill="#FA9E6C"></path>
                    <path d="M16.7533929,8.72418954 C16.7112017,8.73957914 16.6707686,8.74641895 16.6338513,8.75667866 L16.5248576,8.78061805 C16.4912444,8.7882849 16.4583222,8.79857804 16.4264116,8.81139722 C16.3910992,8.82597994 16.3589023,8.84685836 16.3314816,8.87295559 C16.3282777,8.82684274 16.3463138,8.78173077 16.3807046,8.74983885 C16.4134881,8.71769027 16.4549165,8.69517138 16.5002461,8.68486057 C16.5437587,8.67633949 16.5885808,8.67633949 16.6320934,8.68486057 C16.6750307,8.68903098 16.7164705,8.70246702 16.7533929,8.72418954 L16.7533929,8.72418954 Z" id="路径" fill="#FA9E6C"></path>
                    <path d="M21.2713593,15.6204374 C20.9988749,15.7264545 20.608607,16.8174058 20.2816258,17.8946773 C19.9546445,18.9719488 19.7050137,20.0081814 19.7050137,20.0081814 C19.7050137,20.0081814 19.6962239,20.0492204 19.69095,20.0714498 C19.6535839,20.2473379 19.6294941,20.4256489 19.6188735,20.6049557 C19.6188735,20.6665141 19.6083257,20.7297824 19.6065678,20.7964706 C19.5907461,21.0153449 19.5819563,21.2649983 19.5749244,21.5351711 C19.5678926,21.805344 19.5643766,22.0789367 19.5643766,22.3747589 L19.5643766,23.3049743 C19.5872302,25.4731971 19.6997398,27.862004 19.6997398,27.8654239 L5.2897124,27.8654239 C5.2897124,27.8654239 5.40046409,25.4714871 5.42331765,23.3049743 L5.42331765,22.3747589 C5.42331765,22.0738069 5.42331765,21.7967942 5.41276985,21.5351711 C5.40222205,21.273548 5.39694817,21.0221846 5.38288448,20.7964706 C5.38288448,20.7297824 5.37409468,20.6665141 5.36882076,20.6049557 C5.35864369,20.4257032 5.33514278,20.2474022 5.2985022,20.0714498 C5.2985022,20.0492204 5.2879544,20.026991 5.28268055,20.0081814 C5.2774067,19.9893719 5.02601788,18.965109 4.70079462,17.8946773 C4.37557135,16.8242456 3.98530343,15.7264545 3.71281908,15.6204374 L9.27325786,13.3444875 L10.9626609,14.7124513 L12.1176429,14.5311961 L12.4692357,14.5431658 L12.5360383,14.5431658 L12.887631,14.5311961 L14.0408551,14.7124513 L15.7320161,13.3444875 L21.2713593,15.6204374 Z" id="路径" fill="#74C3FF"></path>
                    <path d="M5.41452781,24.4061853 C5.41452781,24.6267694 5.40398001,24.8456437 5.39870613,25.059388 C5.39343225,25.2731324 5.38815833,25.4578075 5.38288448,25.6476125 C5.38288448,25.8750365 5.3670628,26.0939107 5.36178892,26.2991053 C5.3283876,27.2207709 5.29850223,27.8654239 5.2985022,27.8654239 L5.27389072,27.8654239 C0.481682009,27.747437 0,26.3589537 0,26.3589537 C0.0608008543,26.0207509 0.143591301,25.6866391 0.247872864,25.3586301 C0.304127708,25.1688252 0.369172355,24.9619206 0.441248846,24.7379165 C0.495745728,24.566921 0.557274454,24.377116 0.617045219,24.1821812 C0.676815984,23.9872463 0.750650436,23.7752119 0.822726959,23.5614676 C1.92672807,20.3211032 3.72512484,15.6204374 3.72512481,15.6204374 C4.26657758,15.8324718 5.29498628,20.0081814 5.29498628,20.0081814 C5.45496097,20.5690466 5.45496097,22.5662739 5.41452781,24.4061853 Z M25,26.3589537 C25,26.3589537 24.5112861,27.747437 19.7261093,27.8654239 L19.7050137,27.8654239 C19.7050137,27.8654239 19.6786443,27.3045587 19.6505168,26.4820704 C19.6505168,26.2785858 19.6346952,26.0614216 19.6276633,25.8305776 C19.6276633,25.6407727 19.6153576,25.4441279 19.6100837,25.2423532 C19.6048098,25.0405785 19.5977779,24.8114446 19.592504,24.5891504 C19.5485549,22.7082001 19.5432811,20.5878561 19.7085296,20.0081814 C19.7085296,20.0081814 20.7369383,15.8324717 21.2783911,15.6204374 C21.2783911,15.6204374 23.1418325,20.4920987 24.2370438,23.735883 C24.3108783,23.9513373 24.3794389,24.1582418 24.4444835,24.3565966 C24.5095282,24.5549514 24.5692989,24.7379165 24.6202799,24.9140419 C24.6923564,25.1397559 24.7556431,25.3483704 24.808382,25.5347554 C24.8899354,25.8053141 24.9539341,26.080589 25,26.3589537 L25,26.3589537 Z" id="形状" fill="#248DF5"></path>
                    <path d="M6.27241405,27.9240085 L6.05091063,27.9240085 L6.27241405,27.9240085 Z" id="路径" fill="#E5E6EB"></path>
                    <path d="M9.94479993,12.6348562 L8.24836509,13.7617164 C8.8582701,15.043433 9.70229607,16.2068206 10.7393995,17.1953057 L12.5219745,14.5482957 C12.5219745,14.5482957 10.5161381,13.966911 9.94479993,12.6348562 L9.94479993,12.6348562 Z" id="路径" fill="#248DF5"></path>
                    <path d="M15.0516841,12.6348562 L16.748119,13.7634264 C16.1380126,15.0449547 15.2933323,16.2078437 14.2553266,17.1953057 L12.4762675,14.5482957 C12.4762675,14.5482957 14.4821039,13.966911 15.0516841,12.6348562 Z" id="路径" fill="#248DF5"></path>
                    <path d="M17.4899824,4.95031922 C17.4905,5.40613583 17.4169293,5.85916643 17.2719921,6.29263377 C17.0373587,6.05308369 16.7775133,5.83816091 16.4967302,5.6514007 C15.4261304,4.93321967 13.9898742,4.61516806 12.4973631,4.61516806 C11.004852,4.61516806 9.62309262,4.93321967 8.55249279,5.6514007 C8.2721658,5.83809591 8.01237199,6.05240302 7.77723084,6.29092382 C7.63230405,5.85804212 7.55873128,5.40557581 7.55924072,4.95031922 C7.55924072,2.43326572 9.78306731,0 12.5237325,0 C15.2643977,0 17.4899824,2.43326572 17.4899824,4.95031922 L17.4899824,4.95031922 Z" id="路径" fill="#74C3FF"></path>
                    <path d="M17.5532663,6.75090167 C17.5532663,6.76116141 17.5444765,6.77142113 17.5409606,6.77997089 C17.440186,7.01041407 17.2339003,7.1813711 16.9839902,7.24155405 C16.73408,7.30173699 16.4696213,7.24414383 16.2699529,7.08605279 C15.3804233,6.39010117 14.0180016,5.9352532 12.5237325,5.9352532 C11.0294634,5.9352532 9.66879966,6.3901012 8.7792701,7.08434284 C8.5800964,7.24324994 8.31556768,7.30153987 8.06543353,7.2416395 C7.81529938,7.18173914 7.60882669,7.01065711 7.50826242,6.77997089 L7.49595669,6.74919169 C7.42270885,6.56966589 7.47256678,6.36475176 7.6207721,6.23620525 C7.81180149,6.06510371 8.01506295,5.90739241 8.22902749,5.7642577 C9.38576752,4.9879382 10.9116799,4.56728934 12.5237325,4.56728934 C14.1357851,4.56728934 15.6634554,4.99648799 16.8201955,5.7642577 C17.0345444,5.90751299 17.2378381,6.06582084 17.4284509,6.2379152 C17.5761936,6.3667295 17.6259773,6.57133817 17.5532663,6.75090167 L17.5532663,6.75090167 Z" id="路径" fill="#248DF5"></path>
                </g>
            </g>
        </g>
    </g>
</svg>