<?xml version="1.0" encoding="UTF-8"?>
<svg width="50px" height="58px" viewBox="0 0 50 58" version="1.1" xmlns="http://www.w3.org/2000/svg" xmlns:xlink="http://www.w3.org/1999/xlink">
    <title>编组 21</title>
    <defs>
        <path d="M12.5,33.3333333 C12.5,33.3333333 25,23.3333333 25,12.5 C25,5.59641667 19.4035833,0 12.5,0 C5.59641667,0 0,5.59641667 0,12.5 C0,23.3333333 12.5,33.3333333 12.5,33.3333333 Z" id="path-1"></path>
        <filter x="-76.0%" y="-51.0%" width="252.0%" height="214.0%" filterUnits="objectBoundingBox" id="filter-2">
            <feOffset dx="0" dy="2" in="SourceAlpha" result="shadowOffsetOuter1"></feOffset>
            <feGaussianBlur stdDeviation="6" in="shadowOffsetOuter1" result="shadowBlurOuter1"></feGaussianBlur>
            <feColorMatrix values="0 0 0 0 0.392156863   0 0 0 0 0.396078431   0 0 0 0 0.4  0 0 0 0.12 0" type="matrix" in="shadowBlurOuter1"></feColorMatrix>
        </filter>
    </defs>
    <g id="工作台" stroke="none" stroke-width="1" fill="none" fill-rule="evenodd">
        <g id="编组-21" transform="translate(12.500000, 10.333333)" fill-rule="nonzero">
            <g id="路径备份-5">
                <use fill="black" fill-opacity="1" filter="url(#filter-2)" xlink:href="#path-1"></use>
                <use fill="#248DF5" xlink:href="#path-1"></use>
            </g>
            <path d="M12.5,17.5 C15.2614167,17.5 17.5,15.2614167 17.5,12.5 C17.5,9.73858333 15.2614167,7.5 12.5,7.5 C9.73858333,7.5 7.5,9.73858333 7.5,12.5 C7.5,15.2614167 9.73858333,17.5 12.5,17.5 Z" id="路径备份-6" stroke="#FFFFFF" fill="#FFFFFF" stroke-linejoin="round"></path>
        </g>
    </g>
</svg>